<?xml version="1.0" encoding="UTF-8" standalone="no"?>
<!-- Created with Inkscape (http://www.inkscape.org/) -->

<svg
   version="1.1"
   id="svg1"
   width="614.40002"
   height="305.51999"
   viewBox="0 0 614.40002 305.51999"
   sodipodi:docname="logo.svg"
   inkscape:version="1.4.3 (0d15f75, 2025-12-25)"
   xmlns:inkscape="http://www.inkscape.org/namespaces/inkscape"
   xmlns:sodipodi="http://sodipodi.sourceforge.net/DTD/sodipodi-0.dtd"
   xmlns="http://www.w3.org/2000/svg"
   xmlns:svg="http://www.w3.org/2000/svg">
  <defs
     id="defs1" />
  <sodipodi:namedview
     id="namedview1"
     pagecolor="#ffffff"
     bordercolor="#000000"
     borderopacity="0.25"
     inkscape:showpageshadow="2"
     inkscape:pageopacity="0.0"
     inkscape:pagecheckerboard="0"
     inkscape:deskcolor="#d1d1d1"
     inkscape:zoom="2.661037"
     inkscape:cx="307.02316"
     inkscape:cy="2.4426567"
     inkscape:window-width="1920"
     inkscape:window-height="1094"
     inkscape:window-x="-11"
     inkscape:window-y="-11"
     inkscape:window-maximized="1"
     inkscape:current-layer="g1" />
  <g
     inkscape:groupmode="layer"
     inkscape:label="Image"
     id="g1">
    <path
       style="fill:#ffffff"
       d="m 238.08001,305.26471 c -11.59308,-0.65196 -19.96897,-3.93938 -23.59772,-9.26176 -1.83215,-2.68726 -2.19045,-3.95823 -2.18843,-7.76296 0.001,-2.81114 0.0744,-3.42244 0.55055,-4.61833 2.13678,-5.36623 8.42942,-8.87282 18.6356,-10.38475 5.04021,-0.74664 18.65222,-0.73037 23.90557,0.0286 l 0.86558,0.12505 -0.35168,1.72472 c -0.19343,0.9486 -0.38504,1.76082 -0.42581,1.80495 -0.0408,0.0441 -1.73002,-0.46158 -3.75389,-1.12379 -5.73019,-1.87493 -8.31158,-2.30881 -13.75977,-2.31274 -3.96836,-0.003 -4.84025,0.0679 -6.72,0.54567 -6.11725,1.5547 -10.18601,5.19382 -11.49956,10.28527 -0.4891,1.8958 -0.48778,5.38691 0.003,7.59798 1.37462,6.19457 6.22341,10.52045 13.53669,12.07682 1.50278,0.31981 3.08284,0.43344 6,0.43149 5.68266,-0.004 9.847,-0.84184 15.85345,-3.19036 1.3934,-0.54481 2.59731,-0.99057 2.67536,-0.99057 0.13884,0 0.67119,2.69226 0.67119,3.39437 0,0.27766 -0.87629,0.47345 -4.02,0.89816 -3.44596,0.46555 -11.15434,1.04093 -12.66,0.94498 -0.264,-0.0168 -1.938,-0.11258 -3.72,-0.21279 z M 106.56,288.95999 v -15.6 h 2.88 2.88 v 15.6 15.6 h -2.88 -2.88 z m 251.76001,0.007 v -15.60739 h 3 3 v 7.2 7.2 h 15.60001 15.6 v -7.2 -7.2 h 3 3 v 15.60739 15.60738 l -2.94,-0.0674 -2.94,-0.0674 -0.0633,-7.74 -0.0633,-7.74 h -15.59335 -15.59336 l -0.0633,7.74 -0.0633,7.74 -2.94,0.0674 -2.94,0.0674 z m 143.04001,-0.007 v -15.6 h 2.88 2.88 v 15.6 15.6 h -2.88 -2.88 z M 61.607317,175.17959 C 26.502109,173.64371 4.7665669,159.84532 0.58378896,136.44 -0.06014614,132.83676 -0.00909906,126.80417 0.69954744,122.76 2.2522072,113.89912 5.5981429,106.07644 11.888755,96.599997 22.802687,80.158795 40.96051,63.46998 65.549328,47.280683 c 2.821871,-1.857922 5.375077,-3.440195 5.673791,-3.516162 0.643436,-0.163636 1.256884,0.275255 1.256884,0.899237 0,0.294637 -1.317698,1.436723 -3.9,3.380238 -9.320267,7.0147 -15.423526,12.26955 -22.502086,19.37409 -9.138129,9.171666 -14.825391,16.729673 -19.069324,25.341911 -3.053965,6.197428 -4.590221,11.169123 -5.311274,17.188553 -1.085167,9.05909 0.939446,17.46431 5.849313,24.28351 1.640017,2.27779 5.489412,6.02223 8.106541,7.88552 6.888678,4.90447 16.569165,8.4323 26.506829,9.6598 7.124017,0.87996 18.578908,1.14093 27.120002,0.61787 38.059916,-2.33081 86.302616,-15.98889 128.160006,-36.28361 29.27548,-14.19433 58.18116,-33.39145 78.70696,-52.271642 1.65031,-1.518 3.63994,-3.359405 4.42139,-4.092011 l 1.42082,-1.33201 -1.50622,-2.02799 c -5.43701,-7.320461 -11.03147,-17.137424 -13.78747,-24.193773 -1.85207,-4.74196 -2.98874,-10.824549 -2.6879,-14.38355 0.42394,-5.015205 2.66208,-9.1763939 6.65312,-12.3696193 8.84647,-7.0780533 23.49837,-7.2448521 32.62019,-0.3713518 9.10737,6.8626111 9.51897,17.7825831 1.28496,34.0909271 -2.79007,5.526031 -6.71666,11.891372 -10.47009,16.972924 l -1.66456,2.253547 1.7644,1.669862 c 18.60589,17.608984 41.17851,33.74924 67.04441,47.939217 44.81293,24.5843 101.07216,41.88328 144.47905,44.42544 9.54838,0.55921 22.41494,0.0842 29.78209,-1.09949 7.56185,-1.21498 16.26262,-4.54768 22.29886,-8.54125 3.20584,-2.12098 7.83731,-6.61877 9.71906,-9.43853 3.54271,-5.30867 5.51806,-11.97297 5.52027,-18.62381 0.007,-20.810046 -15.70676,-42.999542 -47.21933,-66.67919 -2.47676,-1.861123 -3.9,-3.086194 -3.9,-3.356969 0,-0.545366 0.45639,-1.002373 1.00102,-1.002373 0.85951,0 13.15341,8.257943 20.47898,13.755948 8.65264,6.493993 15.04294,11.965433 22.03744,18.868681 10.69306,10.553547 18.03049,20.260696 22.95452,30.367983 7.31651,15.01818 7.8786,28.97047 1.65786,41.15174 -5.1606,10.10533 -14.51192,17.58061 -27.73057,22.16732 -20.36894,7.06779 -49.1226,7.11558 -83.35925,0.13856 -35.17681,-7.16862 -75.52725,-22.06792 -108.12,-39.92305 -32.76339,-17.9486 -63.035,-41.176892 -81.25221,-62.347182 -1.22106,-1.419 -2.28757,-2.58 -2.37003,-2.58 -0.0824,0 -1.33518,1.375804 -2.78384,3.057343 -3.35817,3.89801 -13.58934,14.161782 -18.11393,18.171641 -10.85463,9.619785 -21.64807,17.927718 -34.32,26.416788 -28.82207,19.30825 -59.1583,33.99765 -94.68,45.84592 -29.8562,9.95854 -57.00497,15.41477 -81.720007,16.42372 -6.433032,0.26261 -7.660491,0.26122 -13.992686,-0.0158 z M 310.30091,49.499998 c 6.00931,-6.874043 9.57896,-11.916798 12.45791,-17.598952 2.86075,-5.646262 3.78995,-9.084379 3.59194,-13.290474 -0.0812,-1.723964 -0.2354,-2.448294 -0.74959,-3.52033 -1.8147,-3.783448 -6.2553,-6.5983345 -12.32282,-7.8114116 -3.10343,-0.6204673 -9.48159,-0.5759414 -12.56154,0.087692 -4.26797,0.9196137 -8.27217,2.9520726 -10.21983,5.1873956 -0.48214,0.553345 -1.21419,1.708081 -1.62679,2.566081 -0.72801,1.513893 -0.74939,1.652215 -0.72337,4.68 0.0224,2.609483 0.12766,3.4538 0.64318,5.16 1.71976,5.691923 5.2161,11.971701 10.30538,18.509504 2.41833,3.106648 7.83139,9.330495 8.11499,9.330495 0.11312,0 1.50386,-1.485 3.09054,-3.3 z"
       id="path1" />
  </g>
</svg>
